<svg xmlns="http://www.w3.org/2000/svg" version="1.1" xmlns:xlink="http://www.w3.org/1999/xlink" xmlns:svgjs="http://svgjs.dev/svgjs" width="1000" height="623" viewBox="0 0 1000 623"><g transform="matrix(1,0,0,1,-0.6060606060606233,0.2522267206477409)"><svg viewBox="0 0 396 247" data-background-color="#ffffff" preserveAspectRatio="xMidYMid meet" height="623" width="1000" xmlns="http://www.w3.org/2000/svg" xmlns:xlink="http://www.w3.org/1999/xlink"><g id="tight-bounds" transform="matrix(1,0,0,1,0.2400000000000091,-0.09999999999999432)"><svg viewBox="0 0 395.52 247.2" height="247.2" width="395.52"><g><svg></svg></g><g><svg viewBox="0 0 395.52 247.2" height="247.2" width="395.52"><g><path xmlns="http://www.w3.org/2000/svg" d="M55.039 247.2l40.718-70.526 204.006 0 40.718 70.526zM197.76 0l40.718 70.526-81.436 0z" fill="#db2822" fill-rule="nonzero" stroke="none" stroke-width="1" stroke-linecap="butt" stroke-linejoin="miter" stroke-miterlimit="10" stroke-dasharray="" stroke-dashoffset="0" font-family="none" font-weight="none" font-size="none" text-anchor="none" style="mix-blend-mode: normal" data-fill-palette-color="tertiary"></path></g><g transform="matrix(1,0,0,1,0,85.68997853052028)"><svg viewBox="0 0 395.52 75.82004293895943" height="75.82004293895943" width="395.52"><g><svg viewBox="0 0 395.52 75.82004293895943" height="75.82004293895943" width="395.52"><g><svg viewBox="0 0 395.52 75.82004293895943" height="75.82004293895943" width="395.52"><g><svg viewBox="0 0 395.52 75.82004293895943" height="75.82004293895943" width="395.52"><g id="textblocktransform"><svg viewBox="0 0 395.52 75.82004293895943" height="75.82004293895943" width="395.52" id="textblock"><g><svg viewBox="0 0 395.52 46.065336515513124" height="46.065336515513124" width="395.52"><g transform="matrix(1,0,0,1,0,0)"><svg width="395.52" viewBox="1.75 -35.79999923706055 314.2200012207031 36.599998474121094" height="46.065336515513124" data-palette-color="#bc0c07"><path d="M31.55-23.8L28.3-23.8Q27.65-27.95 25.53-30.05 23.4-32.15 19.9-32.2L19.9-32.2Q17.3-32.2 15.35-31 13.4-29.8 12.13-27.8 10.85-25.8 10.23-23.25 9.6-20.7 9.6-18L9.6-18Q9.6-13.7 10.83-10.38 12.05-7.05 14.4-5.15 16.75-3.25 20.1-3.25L20.1-3.25Q23.25-3.25 26.35-4.88 29.45-6.5 31.55-9.4L31.55-9.4 33.95-7.2Q31.5-3.85 28.8-2.13 26.1-0.4 23.53 0.2 20.95 0.8 18.9 0.8L18.9 0.8Q15.05 0.8 11.9-0.58 8.75-1.95 6.48-4.38 4.2-6.8 2.98-10.03 1.75-13.25 1.75-17L1.75-17Q1.75-20.4 2.85-23.75 3.95-27.1 6.13-29.83 8.3-32.55 11.6-34.18 14.9-35.8 19.25-35.8L19.25-35.8Q21.2-35.8 23.53-35.18 25.85-34.55 27.9-33.35L27.9-33.35 27.7-35.45 31.55-35.45 31.55-23.8ZM66.7 0.8L66.7 0.8Q61.95 0.8 58.62-0.8 55.3-2.4 53.25-5.08 51.2-7.75 50.25-11 49.3-14.25 49.3-17.5L49.3-17.5Q49.3-20.65 50.37-23.88 51.45-27.1 53.62-29.8 55.8-32.5 59.09-34.15 62.4-35.8 66.84-35.8L66.84-35.8Q71.4-35.8 74.7-34.15 78-32.5 80.09-29.78 82.19-27.05 83.22-23.85 84.25-20.65 84.25-17.5L84.25-17.5Q84.25-14.4 83.17-11.2 82.09-8 79.92-5.28 77.75-2.55 74.45-0.88 71.15 0.8 66.7 0.8ZM67.25-2.85L67.25-2.85Q69.84-2.85 71.59-4.13 73.34-5.4 74.4-7.45 75.45-9.5 75.9-11.93 76.34-14.35 76.34-16.65L76.34-16.65Q76.34-20.1 75.75-22.95 75.15-25.8 73.9-27.88 72.65-29.95 70.72-31.08 68.8-32.2 66.2-32.15L66.2-32.15Q63.65-32.1 61.9-30.78 60.15-29.45 59.09-27.38 58.05-25.3 57.59-22.85 57.15-20.4 57.15-18.1L57.15-18.1Q57.15-15.75 57.67-13.1 58.2-10.45 59.34-8.1 60.5-5.75 62.45-4.3 64.4-2.85 67.25-2.85ZM132.49 0.5L128.24 0.5 112.24-19.95Q111.59-20.8 110.89-21.75 110.19-22.7 109.49-23.7L109.49-23.7 109.44-23.7 109.54-8.2Q109.54-6.85 109.49-5.6 109.44-4.35 109.34-3.7L109.34-3.7Q110.14-3.8 111.37-3.83 112.59-3.85 113.09-3.85L113.09-3.85 113.09 0 101.69 0 101.69-3.3Q102.84-3.35 103.62-3.6 104.39-3.85 104.82-4.75 105.24-5.65 105.24-7.65L105.24-7.65 105.14-26.8Q105.14-28.15 105.19-29.4 105.24-30.65 105.34-31.3L105.34-31.3Q104.54-31.25 103.32-31.23 102.09-31.2 101.54-31.15L101.54-31.15 101.54-35 109.39-35 124.69-15.7Q125.94-14.1 126.77-12.95 127.59-11.8 128.19-10.95L128.19-10.95 128.24-10.95 128.24-26.8Q128.24-28.15 128.29-29.4 128.34-30.65 128.39-31.3L128.39-31.3Q127.59-31.25 126.39-31.23 125.19-31.2 124.64-31.15L124.64-31.15 124.64-35 136.04-35 136.04-31.7Q134.94-31.65 134.14-31.4 133.34-31.15 132.92-30.28 132.49-29.4 132.49-27.35L132.49-27.35 132.49 0.5ZM168.49 0L153.44 0 153.44-3.3Q154.59-3.35 155.36-3.6 156.14-3.85 156.56-4.75 156.99-5.65 156.99-7.65L156.99-7.65 156.99-26.8Q156.99-28.15 157.06-29.4 157.14-30.65 157.19-31.3L157.19-31.3Q156.39-31.25 155.19-31.23 153.99-31.2 153.44-31.15L153.44-31.15 153.44-35 178.44-35 178.74-25.3 175.44-25.3Q175.44-28.05 174.49-29.45 173.54-30.85 172.14-31.33 170.74-31.8 169.39-31.75L169.39-31.75 167.59-31.7Q166.54-31.7 165.79-31.43 165.04-31.15 164.64-30.23 164.24-29.3 164.24-27.35L164.24-27.35 164.24-18.65 169.39-18.65 169.19-22.95 173.04-22.95 173.04-10.8 169.74-10.8Q169.74-12.9 169.09-13.85 168.44-14.8 167.31-15.03 166.19-15.25 164.84-15.2L164.84-15.2 164.24-15.2 164.24-8.2Q164.24-6.85 164.19-5.6 164.14-4.35 164.04-3.7L164.04-3.7Q164.59-3.75 165.49-3.78 166.39-3.8 167.26-3.83 168.14-3.85 168.49-3.85L168.49-3.85 168.49 0ZM208.28-35L208.28-31.7Q207.18-31.65 206.38-31.4 205.58-31.15 205.16-30.28 204.73-29.4 204.73-27.35L204.73-27.35 204.73-13.6Q204.73-10.45 205.41-8.43 206.08-6.4 207.21-5.23 208.33-4.05 209.76-3.55 211.18-3.05 212.68-3L212.68-3Q215.43-2.9 217.38-4.05 219.33-5.2 220.38-7.6 221.43-10 221.43-13.7L221.43-13.7 221.43-26.8Q221.43-28.15 221.48-29.4 221.53-30.65 221.63-31.3L221.63-31.3Q220.83-31.25 219.61-31.23 218.38-31.2 217.83-31.15L217.83-31.15 217.83-35 229.43-35 229.43-31.7Q228.33-31.65 227.53-31.4 226.73-31.15 226.31-30.28 225.88-29.4 225.88-27.35L225.88-27.35 225.88-14.85Q225.88-10.55 224.83-7.55 223.78-4.55 221.88-2.7 219.98-0.85 217.43-0.03 214.88 0.8 211.88 0.8L211.88 0.8Q207.68 0.8 204.88-0.4 202.08-1.6 200.46-3.75 198.83-5.9 198.16-8.7 197.48-11.5 197.48-14.7L197.48-14.7 197.48-26.8Q197.48-28.15 197.56-29.4 197.63-30.65 197.68-31.3L197.68-31.3Q196.88-31.25 195.68-31.23 194.48-31.2 193.93-31.15L193.93-31.15 193.93-35 208.28-35ZM269.78-23.8L266.48-23.8Q266.03-26.6 264.88-28.48 263.73-30.35 261.95-31.3 260.18-32.25 257.83-32.2L257.83-32.2Q255.68-32.2 254.05-31 252.43-29.8 252.43-27.9L252.43-27.9Q252.43-26.35 253.3-25.2 254.18-24.05 255.98-23.05 257.78-22.05 260.53-20.9L260.53-20.9Q262.43-20.15 264.43-19.15 266.43-18.15 268.13-16.78 269.83-15.4 270.88-13.58 271.93-11.75 271.93-9.3L271.93-9.3Q271.93-6.35 270.33-4.05 268.73-1.75 265.85-0.48 262.98 0.8 259.13 0.8L259.13 0.8Q257.13 0.8 254.8 0.18 252.48-0.45 250.43-1.65L250.43-1.65 250.58 0.45 246.73 0.45 246.73-11.25 250.03-11.25Q250.73-7.05 253.25-4.93 255.78-2.8 259.28-2.8L259.28-2.8Q261.08-2.8 262.43-3.45 263.78-4.1 264.53-5.18 265.28-6.25 265.28-7.5L265.28-7.5Q265.28-9.25 264.05-10.4 262.83-11.55 261-12.35 259.18-13.15 257.28-13.9L257.28-13.9Q254.88-14.9 252.8-16.03 250.73-17.15 249.18-18.6 247.63-20.05 246.78-21.93 245.93-23.8 245.93-26.25L245.93-26.25Q245.93-27.8 246.53-29.48 247.13-31.15 248.48-32.58 249.83-34 252.08-34.9 254.33-35.8 257.63-35.8L257.63-35.8Q259.63-35.8 262-35.2 264.38-34.6 266.08-33.4L266.08-33.4 265.88-35.45 269.78-35.45 269.78-23.8ZM309.62-12.05L306.32-12.05Q306.32-14.15 305.67-15.08 305.02-16 303.9-16.25 302.77-16.5 301.42-16.45L301.42-16.45 300.12-16.4 300.12-8.2Q300.12-6.85 300.07-5.65 300.02-4.45 299.92-3.8L299.92-3.8 306.62-3.8Q308.12-3.8 309.52-4.48 310.92-5.15 311.82-6.73 312.72-8.3 312.72-11L312.72-11 315.97-11 315.72 0 289.32 0 289.32-3.3Q290.47-3.35 291.25-3.6 292.02-3.85 292.45-4.75 292.87-5.65 292.87-7.65L292.87-7.65 292.87-26.8Q292.87-28.15 292.95-29.4 293.02-30.65 293.07-31.3L293.07-31.3Q292.27-31.25 291.07-31.23 289.87-31.2 289.32-31.15L289.32-31.15 289.32-35 314.32-35 314.62-25.3 311.32-25.3Q311.32-28.05 310.37-29.45 309.42-30.85 308.02-31.33 306.62-31.8 305.27-31.75L305.27-31.75 303.47-31.7Q302.42-31.7 301.67-31.43 300.92-31.15 300.52-30.23 300.12-29.3 300.12-27.35L300.12-27.35 300.12-19.85 305.97-19.85 305.77-24.2 309.62-24.2 309.62-12.05Z" opacity="1" transform="matrix(1,0,0,1,0,0)" fill="#bc0c07" class="wordmark-text-0" data-fill-palette-color="primary" id="text-0"></path></svg></g></svg></g><g transform="matrix(1,0,0,1,253.63173065641567,52.78737468120286)"><svg viewBox="0 0 141.8882693435843 23.032668257756562" height="23.032668257756562" width="141.8882693435843"><g transform="matrix(1,0,0,1,0,0)"><svg width="141.8882693435843" viewBox="-8.300000190734863 -32 201.74000549316406 32.75" height="23.032668257756562" data-palette-color="#8d021f"><path d="M12.9-19.4L12.9-19.4-8.3-21.65 13.25-21.65Q13-20.65 12.9-19.4ZM-6.9-26.45L14.6-26.45 13.85-24.25-6.9-26.45ZM-7.85-16.85L12.9-16.85Q13-15.5 13.3-14.6L13.3-14.6-7.85-16.85ZM19.9-9.8L19.9-9.8-6.55-12.05 15-12.05Q16.65-10.45 19.9-9.8ZM-3.15-31.25L18.35-31.25Q17.2-30.5 16.15-29.2L16.15-29.2-3.15-31.25ZM10.55-5.05L-7.4-7.25 11.3-7.25 10.55-5.05ZM8.95-0.2L-8.25-2.4 9.7-2.4 8.95-0.2ZM10.65-0.55L13.45-8.8Q17.65-7.65 21.13-7.65 24.6-7.65 26.8-7.95L26.8-7.95 27.2-10.45 23.05-10.85Q18.3-11.3 16.32-13 14.35-14.7 14.35-17.8L14.35-17.8Q14.35-19.15 14.65-20.8L14.65-20.8Q15.8-27.2 18.85-29.6 21.9-32 28.23-32 34.55-32 39.4-30.75L39.4-30.75 36.8-22.75Q32.45-23.5 29.83-23.5 27.2-23.5 25.3-23.25L25.3-23.25 24.9-20.8 28.25-20.45Q33.35-19.9 35.5-18.03 37.65-16.15 37.65-13L37.65-13Q37.65-9.8 36.3-6.4L36.3-6.4Q35.55-4.65 34.73-3.48 33.9-2.3 32.63-1.48 31.35-0.65 30.3-0.23 29.25 0.2 27.6 0.4L27.6 0.4Q25.3 0.75 21.9 0.75L21.9 0.75Q15.7 0.75 10.65-0.55L10.65-0.55ZM62.2-21.65L61.8-19.4 40.6-21.65 62.2-21.65ZM61.35-16.85L60.95-14.6 39.8-16.85 61.35-16.85ZM63.9-31.25L63.5-29 42.35-31.25 63.9-31.25ZM62.65-24.2L41.5-26.45 63.05-26.45 62.65-24.2ZM39.1-12.05L60.5-12.05Q60.3-10.4 60.25-9.8L60.25-9.8 39.1-12.05ZM39.15-7.25L60.15-7.25Q60.15-6.05 60.3-5L60.3-5 39.15-7.25ZM41.45-2.4L61-2.4Q61.65-1 62.6-0.15L62.6-0.15 41.45-2.4ZM70.8-7.8L74.2-7.8Q75.95-7.8 76.7-8.28 77.45-8.75 77.75-10.45L77.75-10.45 81.45-31.25 90.95-31.25 87.85-13.7Q87.1-9.45 86.12-6.85 85.15-4.25 83.4-2.45 81.65-0.65 79.07 0.05 76.5 0.75 72.55 0.75L72.55 0.75Q66.5 0.75 64.07-1.07 61.65-2.9 61.65-7.35L61.65-7.35Q61.65-9.8 62.35-13.7L62.35-13.7 65.45-31.25 74.95-31.25 70.8-7.8ZM120.39-7.8L124.34-7.8Q126.29-7.8 127.24-8.28 128.19-8.75 128.49-10.45L128.49-10.45 130.79-23.45 126.79-23.45Q124.89-23.45 123.94-22.98 122.99-22.5 122.69-20.8L122.69-20.8 120.39-7.8ZM128.44-32L128.44-32Q134.79-32 137.49-29.53 140.19-27.05 140.19-21.9 140.19-16.75 138.57-11.13 136.94-5.5 133.42-2.38 129.89 0.75 123.12 0.75 116.34 0.75 113.64-1.73 110.94-4.2 110.94-9.35L110.94-9.35Q110.94-11.8 111.64-15.83 112.34-19.85 113.49-22.78 114.64-25.7 116.59-27.85L116.59-27.85Q120.34-32 128.44-32ZM110.34-16.85L110.19-15.85Q110.09-15.45 109.99-14.75L109.99-14.75 90.34-16.85 110.34-16.85ZM89.79-12.05L109.64-12.05Q109.49-10.9 109.49-9.95L109.49-9.95 89.79-12.05ZM91.54-21.65L111.54-21.65 110.94-19.6 91.54-21.65ZM90.44-7.25L109.54-7.25Q109.74-5.85 109.89-5.15L109.89-5.15 90.44-7.25ZM93.89-26.45L113.59-26.45Q112.89-25.15 112.59-24.45L112.59-24.45 93.89-26.45ZM95.24-2.4L111.04-2.4Q111.69-1.25 112.54-0.55L112.54-0.55 95.24-2.4ZM100.79-31.25L118.34-31.25Q116.89-30.35 116.09-29.6L116.09-29.6 100.79-31.25ZM178.99 0L173.89-11.1Q173.69-11.45 173.69-12.08 173.69-12.7 173.79-13.5L173.79-13.5 173.39-13.5 171.04 0 161.54 0 167.04-31.25 175.99-31.25 181.09-20.15Q181.24-19.8 181.24-19.18 181.24-18.55 181.14-17.75L181.14-17.75 181.54-17.75 183.94-31.25 193.44-31.25 187.94 0 178.99 0ZM160.44-2.4L160.04-0.15 138.84-2.4 160.44-2.4ZM162.14-12.05L161.74-9.8 140.54-12.05 162.14-12.05ZM162.99-16.85L162.59-14.6 141.39-16.85 162.99-16.85ZM163.84-21.65L163.44-19.4 142.24-21.65 163.84-21.65ZM164.64-26.45L164.29-24.2 143.09-26.45 164.64-26.45ZM161.29-7.25L160.89-5 139.69-7.25 161.29-7.25ZM165.49-31.25L165.09-29 143.94-31.25 165.49-31.25Z" opacity="1" transform="matrix(1,0,0,1,0,0)" fill="#8d021f" class="slogan-text-1" data-fill-palette-color="secondary" id="text-1"></path></svg></g></svg></g></svg></g></svg></g><g></g></svg></g></svg></g></svg></g></svg></g><defs></defs></svg><rect width="395.52" height="247.2" fill="none" stroke="none" visibility="hidden"></rect></g></svg></g></svg>